<svg width="30" height="30" viewBox="0 0 30 30" fill="none" xmlns="http://www.w3.org/2000/svg">
<path fill-rule="evenodd" clip-rule="evenodd" d="M2.26248 19.1492L2.98681 16.609C2.98681 16.609 1.41698 13.7113 2.03925 10.4278C2.03925 10.4278 2.70011 6.94081 5.50271 4.76331C5.50271 4.76331 8.3053 2.58582 11.8475 2.80726C11.8475 2.80726 15.3896 3.02869 17.8992 5.53827C17.8992 5.53827 20.4088 8.04786 20.6302 11.59C20.6302 11.59 20.8517 15.1322 18.6742 17.9348C18.6742 17.9348 16.4967 20.7374 13.0097 21.3982C13.0097 21.3982 9.72623 22.0205 6.82854 20.4507L4.28831 21.175C4.28831 21.175 3.85658 21.2964 3.42604 21.1839C3.42604 21.1839 2.9955 21.0713 2.68084 20.7567C2.68084 20.7567 2.36617 20.442 2.25363 20.0115C2.25363 20.0115 2.1411 19.5809 2.26154 19.1525L2.26248 19.1492ZM6.69213 18.5398L4.18187 19.2556L4.89765 16.7454C4.96833 16.4975 4.93383 16.2314 4.80226 16.0098C4.80226 16.0098 3.35261 13.5674 3.88146 10.777C3.88146 10.777 4.41032 7.98648 6.65309 6.24394C6.65309 6.24394 8.89586 4.5014 11.7305 4.6786C11.7305 4.6786 14.5651 4.85581 16.5734 6.8641C16.5734 6.8641 18.5817 8.8724 18.7589 11.707C18.7589 11.707 18.9361 14.5416 17.1936 16.7844C17.1936 16.7844 15.451 19.0272 12.6605 19.556C12.6605 19.556 9.87005 20.0849 7.42772 18.6352C7.20606 18.5037 6.94002 18.4692 6.69213 18.5398Z" fill="#27AE60"/>
<path d="M23.7893 9.89956C21.7131 8.57944 19.2562 8.45046 19.2562 8.45046C19.2398 8.4496 19.2234 8.44917 19.207 8.44917C19.1662 8.44917 19.1255 8.45184 19.085 8.45715C18.6369 8.51598 18.2945 8.88617 18.2708 9.33752C18.27 9.35389 18.2695 9.37028 18.2695 9.38667C18.2695 9.42748 18.2722 9.46824 18.2775 9.5087C18.3363 9.95683 18.7065 10.2992 19.1579 10.3229C21.1228 10.426 22.7832 11.4818 22.7832 11.4818C24.4437 12.5376 25.3706 14.2732 25.3706 14.2732C26.2976 16.0088 26.2516 17.9759 26.2516 17.9759C26.2056 19.943 25.1985 21.6334 25.1985 21.6334C25.0663 21.8553 25.0315 22.1219 25.1024 22.3703L25.8181 24.8806L23.3079 24.1648C23.0688 24.0966 22.8124 24.1262 22.5951 24.2471L22.5716 24.2606L22.57 24.2616C21.123 25.1217 19.447 25.2797 19.447 25.2797C17.7701 25.4379 16.187 24.8627 16.187 24.8627C14.6039 24.2876 13.4195 23.09 13.4195 23.09C12.2351 21.8924 11.6776 20.3029 11.6776 20.3029C11.5953 20.0683 11.4232 19.876 11.1991 19.7683C11.0724 19.7074 10.9336 19.6757 10.793 19.6757L10.775 19.6759C10.6754 19.6778 10.5767 19.6956 10.4827 19.7286C10.2481 19.8109 10.0557 19.983 9.94802 20.2071C9.88711 20.3338 9.85548 20.4726 9.85548 20.6132L9.85565 20.6312C9.85756 20.7308 9.87534 20.8295 9.90832 20.9235C10.6054 22.9109 12.0863 24.4084 12.0863 24.4084C13.5672 25.9059 15.5467 26.6251 15.5467 26.6251C17.5263 27.3442 19.6231 27.1464 19.6231 27.1464C21.5135 26.9681 23.171 26.0755 23.171 26.0755L25.715 26.8009C26.1434 26.9213 26.574 26.8088 26.574 26.8088C27.0045 26.6963 27.3192 26.3816 27.3192 26.3816C27.6338 26.0669 27.7464 25.6364 27.7464 25.6364C27.8589 25.2059 27.7375 24.7741 27.7375 24.7741L27.0132 22.234C28.0734 20.2719 28.126 18.0197 28.126 18.0197C28.1836 15.5601 27.0245 13.3899 27.0245 13.3899C25.8655 11.2197 23.7893 9.89956 23.7893 9.89956Z" fill="#27AE60"/>
</svg>
