<svg width="61" height="61" viewBox="0 0 61 61" fill="none" xmlns="http://www.w3.org/2000/svg">
<path d="M21.4829 30.0819C21.134 29.7486 20.6701 29.5625 20.1875 29.5625C20.1871 29.5625 20.145 29.563 20.145 29.563C19.6478 29.5743 19.1755 29.7826 18.8319 30.1421C18.4986 30.491 18.3125 30.9549 18.3125 31.4375L18.313 31.48C18.3243 31.9772 18.5326 32.4495 18.8921 32.7931L25.7593 39.3556C26.4836 40.0477 27.6241 40.0482 28.3489 39.3567L42.1063 26.2321C42.4661 25.8888 42.6753 25.4163 42.687 24.9191C42.6877 24.8891 42.6877 24.8591 42.6869 24.829C42.6755 24.363 42.4909 23.918 42.1692 23.5807C41.8153 23.2099 41.3251 23 40.8125 23L40.7596 23.0007C40.296 23.0138 39.8538 23.1982 39.5182 23.5183L27.0558 35.4076L21.4829 30.0819Z" fill="#27AE60"/>
<path fill-rule="evenodd" clip-rule="evenodd" d="M30.5 6.125C30.5 6.125 35.4578 6.125 39.9884 8.04128C39.9884 8.04128 44.363 9.89158 47.7357 13.2643C47.7357 13.2643 51.1084 16.637 52.9587 21.0116C52.9587 21.0116 54.875 25.5422 54.875 30.5C54.875 30.5 54.875 35.4578 52.9587 39.9884C52.9587 39.9884 51.1084 44.363 47.7357 47.7357C47.7357 47.7357 44.363 51.1084 39.9884 52.9587C39.9884 52.9587 35.4578 54.875 30.5 54.875C30.5 54.875 25.5422 54.875 21.0116 52.9587C21.0116 52.9587 16.637 51.1084 13.2643 47.7357C13.2643 47.7357 9.89158 44.363 8.04128 39.9884C8.04128 39.9884 6.125 35.4578 6.125 30.5C6.125 30.5 6.125 25.5422 8.04128 21.0116C8.04128 21.0116 9.89159 16.637 13.2643 13.2643C13.2643 13.2643 16.637 9.89158 21.0116 8.04128C21.0116 8.04128 25.5422 6.125 30.5 6.125ZM30.5 9.875C30.5 9.875 26.3026 9.875 22.4724 11.495C22.4724 11.495 18.7714 13.0604 15.9159 15.9159C15.9159 15.9159 13.0604 18.7714 11.495 22.4724C11.495 22.4724 9.875 26.3026 9.875 30.5C9.875 30.5 9.875 34.6974 11.495 38.5276C11.495 38.5276 13.0604 42.2286 15.9159 45.0841C15.9159 45.0841 18.7714 47.9396 22.4724 49.505C22.4724 49.505 26.3026 51.125 30.5 51.125C30.5 51.125 34.6974 51.125 38.5276 49.505C38.5276 49.505 42.2286 47.9396 45.0841 45.0841C45.0841 45.0841 47.9396 42.2286 49.505 38.5276C49.505 38.5276 51.125 34.6974 51.125 30.5C51.125 30.5 51.125 26.3026 49.505 22.4724C49.505 22.4724 47.9396 18.7714 45.0841 15.9159C45.0841 15.9159 42.2286 13.0604 38.5276 11.495C38.5276 11.495 34.6974 9.875 30.5 9.875Z" fill="#27AE60"/>
</svg>
