<svg width="20" height="20" viewBox="0 0 20 20" fill="none" xmlns="http://www.w3.org/2000/svg">
<path fill-rule="evenodd" clip-rule="evenodd" d="M17.4539 8.90788C17.4539 8.90788 17.7503 9.07282 17.9227 9.36521C17.9227 9.36521 18.0959 9.659 18.0959 10.0001C18.0959 10.0001 18.0959 10.3411 17.9227 10.6349C17.9227 10.6349 17.7495 10.9287 17.451 11.0938L4.25857 18.4828C4.25857 18.4828 3.91401 18.6732 3.52596 18.6342C3.52596 18.6342 3.13791 18.5952 2.84088 18.3425C2.84088 18.3425 2.54385 18.0898 2.44324 17.713C2.44324 17.713 2.34263 17.3362 2.47413 16.969L4.95858 10.0001L2.47382 3.03024C2.47382 3.03024 2.34263 2.66395 2.44324 2.28715C2.44324 2.28715 2.54385 1.91035 2.84088 1.65761C2.84088 1.65761 3.13791 1.40488 3.52596 1.36589C3.52596 1.36589 3.91401 1.3269 4.25538 1.51549L17.451 8.9063L17.4539 8.90788ZM3.65093 2.60962L16.8431 9.99847L16.8459 10.0001L3.65093 17.3905L6.13187 10.4314C6.13187 10.4314 6.30086 10.0001 6.13187 9.56875L3.65093 2.60962Z" fill="#1C1C1C"/>
<path d="M5.62503 10.6251H10.625C10.9702 10.6251 11.25 10.3453 11.25 10.0001C11.25 9.65491 10.9702 9.37509 10.625 9.37509H5.62503C5.27985 9.37509 5.00003 9.65491 5.00003 10.0001C5.00003 10.3453 5.27985 10.6251 5.62503 10.6251Z" fill="#1C1C1C"/>
</svg>
