<svg width="24" height="24" viewBox="0 0 24 24" fill="none" xmlns="http://www.w3.org/2000/svg">
<path fill-rule="evenodd" clip-rule="evenodd" d="M4.5 20.9999H8.6894L8.69063 20.9999C8.69063 20.9999 8.98612 21.0005 9.25954 20.8882C9.25954 20.8882 9.53418 20.7754 9.74464 20.5659L20.996 9.31462C20.996 9.31462 21.2066 9.10721 21.323 8.82924C21.323 8.82924 21.4394 8.55127 21.4394 8.24992C21.4394 8.24992 21.4394 7.94857 21.323 7.67059C21.323 7.67059 21.2066 7.39262 20.9919 7.18117L16.8147 3.00396C16.8147 3.00396 16.6073 2.79332 16.3293 2.67694C16.3293 2.67694 16.0514 2.56055 15.75 2.56055C15.75 2.56055 15.4487 2.56055 15.1707 2.67693C15.1707 2.67693 14.8927 2.79332 14.6813 3.00804L3.4353 14.254C3.4353 14.254 3.22457 14.4657 3.11177 14.7404C3.11177 14.7404 2.99897 15.015 3.00001 15.3119L3 19.4999C3 19.4999 3 20.1212 3.43934 20.5606C3.43934 20.5606 3.87868 20.9999 4.5 20.9999ZM19.9353 8.25396L8.68935 19.4999H4.5L4.5 15.3106L15.75 4.06055L15.754 4.06462L19.9394 8.24992L19.9353 8.25396Z" fill="#1C1C1C"/>
<path d="M17.4693 11.7799C17.6099 11.9206 17.8011 12 18 12C18.1989 12 18.3897 11.921 18.5303 11.7803C18.671 11.6397 18.75 11.4489 18.75 11.25C18.75 11.0511 18.671 10.8603 18.5303 10.7197L13.2804 5.46976C13.1397 5.32902 12.9489 5.25 12.75 5.25C12.5511 5.25 12.3603 5.32902 12.2197 5.46967C12.079 5.61032 12 5.80109 12 6C12 6.19891 12.079 6.38968 12.2197 6.53033L17.4693 11.7799Z" fill="#1C1C1C"/>
</svg>
