<svg width="20" height="20" viewBox="0 0 20 20" fill="none" xmlns="http://www.w3.org/2000/svg">
<path fill-rule="evenodd" clip-rule="evenodd" d="M16.2344 8.74994C16.2344 8.74994 16.2344 11.9919 17.2518 13.7493C17.2518 13.7493 17.4194 14.0395 17.4197 14.3738C17.4197 14.3738 17.42 14.7082 17.2533 14.998C17.2533 14.998 17.0867 15.2879 16.7975 15.4558C16.7975 15.4558 16.5084 15.6238 16.1741 15.6249L3.82814 15.6249C3.82814 15.6249 3.49159 15.6238 3.20248 15.4558C3.20248 15.4558 2.91337 15.2879 2.74671 14.998C2.74671 14.998 2.58004 14.7082 2.58034 14.3738C2.58034 14.3738 2.58063 14.0395 2.74781 13.7499C2.74781 13.7499 3.76564 11.9919 3.76564 8.74994C3.76564 8.74994 3.76564 7.50984 4.2402 6.36415C4.2402 6.36415 4.71476 5.21845 5.59164 4.34157C5.59164 4.34157 6.46852 3.46469 7.61422 2.99013C7.61422 2.99013 8.75992 2.51556 10 2.51556C10 2.51556 11.2401 2.51556 12.3858 2.99013C12.3858 2.99013 13.5315 3.46469 14.4084 4.34157C14.4084 4.34157 15.2853 5.21845 15.7598 6.36415C15.7598 6.36415 16.2344 7.50984 16.2344 8.74994ZM16.1697 14.3749C16.1697 14.3749 14.9844 12.3271 14.9844 8.74994C14.9844 8.74994 14.9844 7.75848 14.605 6.8425C14.605 6.8425 14.2256 5.92651 13.5245 5.22545C13.5245 5.22545 12.8234 4.52439 11.9074 4.14498C11.9074 4.14498 10.9915 3.76556 10 3.76556C10 3.76556 9.00856 3.76556 8.09257 4.14498C8.09257 4.14498 7.17659 4.52439 6.47553 5.22545C6.47553 5.22545 5.77446 5.92652 5.39505 6.8425C5.39505 6.8425 5.01564 7.75848 5.01564 8.74994C5.01564 8.74994 5.01564 12.3276 3.83034 14.3749H16.1697Z" fill="#1C1C1C"/>
<path d="M13.125 15.625V15C13.125 14.6548 12.8452 14.375 12.5 14.375C12.1548 14.375 11.875 14.6548 11.875 15V15.625C11.875 16.4016 11.3258 16.9508 11.3258 16.9508C10.7767 17.5 10 17.5 10 17.5C9.22335 17.5 8.67417 16.9508 8.67417 16.9508C8.125 16.4016 8.125 15.625 8.125 15.625V15C8.125 14.6548 7.84518 14.375 7.5 14.375C7.15482 14.375 6.875 14.6548 6.875 15V15.625C6.875 16.9194 7.79029 17.8347 7.79029 17.8347C8.70558 18.75 10 18.75 10 18.75C11.2944 18.75 12.2097 17.8347 12.2097 17.8347C13.125 16.9194 13.125 15.625 13.125 15.625Z" fill="#1C1C1C"/>
<path d="M16.7368 5.44144C16.8424 5.65406 17.0595 5.78906 17.2969 5.78906C17.304 5.78906 17.311 5.78894 17.3181 5.7887C17.4073 5.78567 17.4949 5.76357 17.5748 5.72387C17.7874 5.61832 17.9219 5.40144 17.9219 5.16406C17.9219 5.15699 17.9218 5.14992 17.9215 5.14285C17.9185 5.05363 17.8964 4.96609 17.8567 4.88613C16.7557 2.66848 14.6618 1.34649 14.6618 1.34649C14.5619 1.28346 14.4462 1.25 14.3282 1.25L14.3261 1.25C14.2804 1.25015 14.2349 1.25531 14.1903 1.26538C14.0287 1.30193 13.8881 1.40121 13.7996 1.54138C13.7366 1.64124 13.7032 1.75691 13.7032 1.875L13.7032 1.87702C13.7033 1.92271 13.7085 1.96824 13.7185 2.01281C13.7551 2.17449 13.8544 2.31503 13.9945 2.40351C15.7915 3.53784 16.7368 5.44144 16.7368 5.44144Z" fill="#1C1C1C"/>
<path d="M3.26291 5.44198C4.20806 3.53812 6.00547 2.40351 6.00547 2.40351C6.14563 2.31503 6.24491 2.17449 6.28146 2.01281C6.29169 1.96758 6.29684 1.92136 6.29684 1.875L6.2967 1.86158C6.29426 1.74808 6.26096 1.63738 6.20035 1.54138C6.11187 1.40121 5.97133 1.30193 5.80965 1.26538C5.76443 1.25516 5.71821 1.25 5.67184 1.25L5.65843 1.25014C5.54492 1.25258 5.43423 1.28589 5.33822 1.34649C3.24434 2.66825 2.14328 4.88615 2.14328 4.88615C2.10041 4.97252 2.07809 5.06764 2.07809 5.16406L2.07818 5.17431C2.08201 5.40797 2.21587 5.61996 2.42518 5.72387C2.51155 5.76675 2.60667 5.78906 2.70309 5.78906L2.70713 5.78905C2.77355 5.78862 2.83947 5.77761 2.90243 5.75642C3.05953 5.70356 3.1892 5.59045 3.26291 5.44198Z" fill="#1C1C1C"/>
</svg>
