<svg width="20" height="20" viewBox="0 0 20 20" fill="none" xmlns="http://www.w3.org/2000/svg">
<path fill-rule="evenodd" clip-rule="evenodd" d="M1.50832 12.7661L1.9912 11.0726C1.9912 11.0726 0.944644 9.14084 1.3595 6.95188C1.3595 6.95188 1.80007 4.62721 3.66846 3.17554C3.66846 3.17554 5.53686 1.72388 7.8983 1.8715C7.8983 1.8715 10.2597 2.01913 11.9328 3.69218C11.9328 3.69218 13.6059 5.36524 13.7535 7.72668C13.7535 7.72668 13.9011 10.0881 12.4494 11.9565C12.4494 11.9565 10.9978 13.8249 8.6731 14.2655C8.6731 14.2655 6.48415 14.6803 4.55235 13.6338L2.85887 14.1167C2.85887 14.1167 2.57104 14.1976 2.28402 14.1226C2.28402 14.1226 1.997 14.0476 1.78722 13.8378C1.78722 13.8378 1.57744 13.628 1.50241 13.341C1.50241 13.341 1.42739 13.0539 1.50769 12.7683L1.50832 12.7661ZM4.46141 12.3599L2.7879 12.8371L3.26509 11.1636C3.31221 10.9983 3.28921 10.821 3.2015 10.6732C3.2015 10.6732 2.23507 9.04496 2.58763 7.18464C2.58763 7.18464 2.9402 5.32432 4.43538 4.16263C4.43538 4.16263 5.93057 3.00093 7.82031 3.11907C7.82031 3.11907 9.71006 3.2372 11.0489 4.57607C11.0489 4.57607 12.3878 5.91493 12.5059 7.80467C12.5059 7.80467 12.6241 9.69442 11.4624 11.1896C11.4624 11.1896 10.3007 12.6848 8.44035 13.0374C8.44035 13.0374 6.58002 13.3899 4.95181 12.4235C4.80403 12.3358 4.62667 12.3128 4.46141 12.3599Z" fill="#1C1C1C"/>
<path d="M15.8595 6.59971C14.4754 5.71963 12.8375 5.63364 12.8375 5.63364C12.8265 5.63307 12.8156 5.63278 12.8047 5.63278C12.7775 5.63278 12.7503 5.63456 12.7233 5.6381C12.4246 5.67732 12.1963 5.92411 12.1805 6.22502C12.18 6.23593 12.1797 6.24685 12.1797 6.25778C12.1797 6.28499 12.1815 6.31216 12.185 6.33913C12.2242 6.63789 12.471 6.86613 12.7719 6.88192C14.0819 6.95069 15.1888 7.65453 15.1888 7.65453C16.2958 8.35837 16.9137 9.51546 16.9137 9.51546C17.5317 10.6725 17.501 11.9839 17.501 11.9839C17.4704 13.2953 16.799 14.4223 16.799 14.4223C16.7109 14.5702 16.6877 14.7479 16.7349 14.9135L17.2121 16.5871L15.5386 16.1099C15.3792 16.0644 15.2082 16.0841 15.0634 16.1647L15.0477 16.1737L15.0466 16.1744C14.082 16.7478 12.9647 16.8531 12.9647 16.8531C11.8467 16.9586 10.7913 16.5752 10.7913 16.5752C9.7359 16.1917 8.94632 15.3933 8.94632 15.3933C8.15674 14.5949 7.78509 13.5353 7.78509 13.5353C7.73022 13.3789 7.61547 13.2507 7.46607 13.1789C7.38159 13.1382 7.28905 13.1172 7.19531 13.1172L7.18332 13.1173C7.11691 13.1185 7.05113 13.1304 6.98845 13.1524C6.83204 13.2072 6.70382 13.322 6.63201 13.4714C6.5914 13.5559 6.57031 13.6484 6.57031 13.7422L6.57043 13.7542C6.5717 13.8206 6.58355 13.8863 6.60554 13.949C7.07025 15.2739 8.05753 16.2723 8.05753 16.2723C9.04482 17.2706 10.3645 17.75 10.3645 17.75C11.6842 18.2295 13.082 18.0976 13.082 18.0976C14.3423 17.9788 15.4473 17.3837 15.4473 17.3837L17.1433 17.8673C17.4289 17.9476 17.716 17.8725 17.716 17.8725C18.003 17.7975 18.2128 17.5877 18.2128 17.5877C18.4225 17.378 18.4976 17.0909 18.4976 17.0909C18.5726 16.8039 18.4917 16.5161 18.4917 16.5161L18.0088 14.8227C18.7156 13.5146 18.7507 12.0132 18.7507 12.0132C18.789 10.3734 18.0163 8.92659 18.0163 8.92659C17.2436 7.47978 15.8595 6.59971 15.8595 6.59971Z" fill="#1C1C1C"/>
</svg>
