<svg width="61" height="60" viewBox="0 0 61 60" xmlns="http://www.w3.org/2000/svg">
<path d="M21.4829 29.5819C21.134 29.2486 20.6701 29.0625 20.1875 29.0625C20.1871 29.0625 20.145 29.063 20.145 29.063C19.6478 29.0743 19.1755 29.2826 18.8319 29.6421C18.4986 29.991 18.3125 30.4549 18.3125 30.9375L18.313 30.98C18.3243 31.4772 18.5326 31.9495 18.8921 32.2931L25.7593 38.8556C26.4836 39.5477 27.6241 39.5482 28.3489 38.8567L42.1063 25.7321C42.4661 25.3888 42.6753 24.9163 42.687 24.4191C42.6877 24.3891 42.6877 24.3591 42.6869 24.329C42.6755 23.863 42.4909 23.418 42.1692 23.0807C41.8153 22.7099 41.3251 22.5 40.8125 22.5L40.7596 22.5007C40.296 22.5138 39.8538 22.6982 39.5182 23.0183L27.0558 34.9076L21.4829 29.5819Z"/>
<path fill-rule="evenodd" clip-rule="evenodd" d="M30.5 5.625C30.5 5.625 35.4578 5.625 39.9884 7.54128C39.9884 7.54128 44.363 9.39158 47.7357 12.7643C47.7357 12.7643 51.1084 16.137 52.9587 20.5116C52.9587 20.5116 54.875 25.0422 54.875 30C54.875 30 54.875 34.9578 52.9587 39.4884C52.9587 39.4884 51.1084 43.863 47.7357 47.2357C47.7357 47.2357 44.363 50.6084 39.9884 52.4587C39.9884 52.4587 35.4578 54.375 30.5 54.375C30.5 54.375 25.5422 54.375 21.0116 52.4587C21.0116 52.4587 16.637 50.6084 13.2643 47.2357C13.2643 47.2357 9.89158 43.863 8.04128 39.4884C8.04128 39.4884 6.125 34.9578 6.125 30C6.125 30 6.125 25.0422 8.04128 20.5116C8.04128 20.5116 9.89159 16.137 13.2643 12.7643C13.2643 12.7643 16.637 9.39158 21.0116 7.54128C21.0116 7.54128 25.5422 5.625 30.5 5.625ZM30.5 9.375C30.5 9.375 26.3026 9.375 22.4724 10.995C22.4724 10.995 18.7714 12.5604 15.9159 15.4159C15.9159 15.4159 13.0604 18.2714 11.495 21.9724C11.495 21.9724 9.875 25.8026 9.875 30C9.875 30 9.875 34.1974 11.495 38.0276C11.495 38.0276 13.0604 41.7286 15.9159 44.5841C15.9159 44.5841 18.7714 47.4396 22.4724 49.005C22.4724 49.005 26.3026 50.625 30.5 50.625C30.5 50.625 34.6974 50.625 38.5276 49.005C38.5276 49.005 42.2286 47.4396 45.0841 44.5841C45.0841 44.5841 47.9396 41.7286 49.505 38.0276C49.505 38.0276 51.125 34.1974 51.125 30C51.125 30 51.125 25.8026 49.505 21.9724C49.505 21.9724 47.9396 18.2714 45.0841 15.4159C45.0841 15.4159 42.2286 12.5604 38.5276 10.995C38.5276 10.995 34.6974 9.375 30.5 9.375Z"/>
</svg>
