<svg width="61" height="60" viewBox="0 0 61 60" xmlns="http://www.w3.org/2000/svg">
<path fill-rule="evenodd" clip-rule="evenodd" d="M21.8773 50.7841C21.8773 50.7841 21.0621 50.4427 18.5261 50.4081C18.5261 50.4081 16.3578 50.3784 15.2913 50.1834C15.2913 50.1834 13.1953 49.8001 11.9476 48.5524C11.9476 48.5524 10.6924 47.2972 10.3033 45.1654C10.3033 45.1654 10.1055 44.0816 10.0712 41.8811C10.0712 41.8811 10.0323 39.3835 9.71409 38.6185C9.71409 38.6185 9.38925 37.8375 7.61934 35.9858C7.61934 35.9858 6.09734 34.3934 5.47756 33.4978C5.47756 33.4978 4.25 31.724 4.25 30C4.25 30 4.25 28.2836 5.45782 26.5354C5.45782 26.5354 6.06833 25.6518 7.5733 24.0814C7.5733 24.0814 9.36744 22.2092 9.71586 21.3773C9.71586 21.3773 10.0573 20.5621 10.0919 18.0261C10.0919 18.0261 10.1216 15.8578 10.3166 14.7913C10.3166 14.7913 10.6999 12.6953 11.9476 11.4476C11.9476 11.4476 13.2028 10.1924 15.3346 9.80332C15.3346 9.80332 16.4184 9.60552 18.6189 9.57122C18.6189 9.57122 21.1165 9.53229 21.8815 9.21409C21.8815 9.21409 22.6625 8.88925 24.5142 7.11934C24.5142 7.11934 26.1066 5.59734 27.0022 4.97756C27.0022 4.97756 28.776 3.75 30.5 3.75C30.5 3.75 32.2164 3.75 33.9646 4.95782C33.9646 4.95782 34.8482 5.56833 36.4186 7.0733C36.4186 7.0733 38.2908 8.86744 39.1227 9.21586C39.1227 9.21586 39.9379 9.55726 42.4739 9.59193C42.4739 9.59193 44.6422 9.62157 45.7087 9.81662C45.7087 9.81662 47.8047 10.1999 49.0524 11.4476C49.0524 11.4476 50.3076 12.7028 50.6967 14.8346C50.6967 14.8346 50.8945 15.9185 50.9288 18.1189C50.9288 18.1189 50.9677 20.6165 51.2859 21.3815C51.2859 21.3815 51.6108 22.1625 53.3807 24.0142C53.3807 24.0142 54.9027 25.6066 55.5224 26.5022C55.5224 26.5022 56.75 28.276 56.75 30C56.75 30 56.75 31.7164 55.5422 33.4646C55.5422 33.4646 54.9317 34.3483 53.4267 35.9186C53.4267 35.9186 51.6326 37.7908 51.2841 38.6227C51.2841 38.6227 50.9427 39.4379 50.9081 41.9739C50.9081 41.9739 50.8784 44.1422 50.6834 45.2087C50.6834 45.2087 50.3001 47.3047 49.0524 48.5524C49.0524 48.5524 47.7972 49.8076 45.6654 50.1967C45.6654 50.1967 44.5815 50.3945 42.3811 50.4288C42.3811 50.4288 39.8835 50.4677 39.1185 50.7859C39.1185 50.7859 38.3375 51.1108 36.4858 52.8807C36.4858 52.8807 34.8934 54.4027 33.9978 55.0224C33.9978 55.0224 32.224 56.25 30.5 56.25C30.5 56.25 28.7836 56.25 27.0354 55.0422C27.0354 55.0422 26.1517 54.4317 24.5814 52.9267C24.5814 52.9267 22.7092 51.1326 21.8773 50.7841ZM23.3259 47.3252C23.3259 47.3252 24.8006 47.9429 27.176 50.2192C27.176 50.2192 29.5559 52.5 30.5 52.5C30.5 52.5 31.4567 52.5 33.8947 50.1698C33.8947 50.1698 36.2518 47.9168 37.6784 47.3235C37.6784 47.3235 39.1067 46.7294 42.3226 46.6792C42.3226 46.6792 45.6745 46.627 46.4007 45.9007C46.4007 45.9007 47.1138 45.1877 47.1584 41.9227C47.1584 41.9227 47.203 38.6598 47.8252 37.1741C47.8252 37.1741 48.4429 35.6994 50.7192 33.324C50.7192 33.324 53 30.9441 53 30C53 30 53 29.0433 50.6698 26.6053C50.6698 26.6053 48.4168 24.2482 47.8235 22.8216C47.8235 22.8216 47.2294 21.3933 47.1792 18.1774C47.1792 18.1774 47.127 14.8255 46.4007 14.0993C46.4007 14.0993 45.6877 13.3862 42.4227 13.3416C42.4227 13.3416 39.1598 13.297 37.6741 12.6748C37.6741 12.6748 36.1993 12.0571 33.824 9.78076C33.824 9.78076 31.4441 7.5 30.5 7.5C30.5 7.5 29.5433 7.5 27.1053 9.83021C27.1053 9.83021 24.7482 12.0832 23.3216 12.6765C23.3216 12.6765 21.8933 13.2706 18.6774 13.3208C18.6774 13.3208 15.3255 13.373 14.5993 14.0993C14.5993 14.0993 13.8862 14.8123 13.8416 18.0773C13.8416 18.0773 13.797 21.3402 13.1748 22.8259C13.1748 22.8259 12.5571 24.3007 10.2808 26.676C10.2808 26.676 8 29.0559 8 30C8 30 8 30.9567 10.3302 33.3947C10.3302 33.3947 12.5832 35.7518 13.1765 37.1784C13.1765 37.1784 13.7706 38.6067 13.8208 41.8226C13.8208 41.8226 13.873 45.1745 14.5993 45.9007C14.5993 45.9007 15.3123 46.6138 18.5773 46.6584C18.5773 46.6584 21.8402 46.703 23.3259 47.3252Z"/>
<path d="M28.625 18.75V31.875C28.625 32.9105 29.4645 33.75 30.5 33.75C31.5355 33.75 32.375 32.9105 32.375 31.875V18.75C32.375 17.7145 31.5355 16.875 30.5 16.875C29.4645 16.875 28.625 17.7145 28.625 18.75Z" />
<path d="M33.3125 40.3125C33.3125 41.8658 32.0532 43.125 30.5 43.125C28.9468 43.125 27.6875 41.8658 27.6875 40.3125C27.6875 38.7592 28.9468 37.5 30.5 37.5C32.0532 37.5 33.3125 38.7592 33.3125 40.3125Z" />
</svg>
