<svg width="61" height="60" viewBox="0 0 61 60" xmlns="http://www.w3.org/2000/svg">
<path d="M13.1374 8.11374C13.1174 8.09173 13.0969 8.0702 13.0758 8.04917C12.746 7.71935 12.3051 7.52431 11.8392 7.50212L11.8336 7.50186C11.8057 7.50062 11.7779 7.5 11.75 7.5C11.2836 7.5 10.8339 7.67385 10.4887 7.98761C10.4667 8.00762 10.4452 8.02814 10.4242 8.04917C10.0944 8.379 9.89931 8.81991 9.87712 9.28582L9.87686 9.29141C9.87562 9.31926 9.875 9.34713 9.875 9.375C9.875 9.84144 10.0489 10.2911 10.3626 10.6363L47.8626 51.8863C48.218 52.2772 48.7217 52.5 49.25 52.5L49.2578 52.5C49.7216 52.498 50.1681 52.3243 50.5113 52.0124C50.9021 51.657 51.125 51.1533 51.125 50.625L51.125 50.6172C51.123 50.1534 50.9493 49.7069 50.6374 49.3637L13.1374 8.11374Z" />
<path d="M20.1776 24.7173L20.1803 24.718C20.3283 24.7548 20.4803 24.7734 20.6328 24.7734C20.9734 24.7734 21.3076 24.6807 21.5994 24.5051C22.0255 24.2487 22.3324 23.8336 22.4524 23.351C22.4892 23.203 22.5078 23.051 22.5078 22.8984C22.5078 22.8766 22.5074 22.8547 22.5067 22.8329C22.4774 21.9965 21.8975 21.2809 21.0854 21.0789L21.0831 21.0783C19.2565 20.6243 17.3743 20.625 17.3743 20.625C14.3913 20.625 11.6347 21.7668 11.6347 21.7668C8.87818 22.9086 6.7684 25.0184 6.7684 25.0184C4.65861 27.1282 3.51681 29.8847 3.51681 29.8847C2.375 32.6413 2.375 35.625 2.375 35.625C2.375 38.6087 3.51681 41.3653 3.51681 41.3653C4.65861 44.1218 6.7684 46.2316 6.7684 46.2316C8.87818 48.3414 11.6347 49.4832 11.6347 49.4832C14.3913 50.625 17.375 50.625 17.375 50.625H38C42.5798 50.6283 46.7323 48.6941 46.7323 48.6941C46.7343 48.6931 46.7363 48.6922 46.7363 48.6922C47.3968 48.3843 47.8203 47.721 47.8203 46.9922L47.8202 46.9747C47.8177 46.7069 47.7579 46.4427 47.6447 46.2C47.4347 45.7493 47.0541 45.4005 46.5868 45.2304C46.3812 45.1555 46.1641 45.1172 45.9453 45.1172C45.9181 45.1172 45.8909 45.1178 45.8638 45.119C45.6178 45.1297 45.3763 45.1887 45.1531 45.2928C45.1504 45.294 45.1477 45.2953 45.1477 45.2953C41.7499 46.8777 38 46.875 38 46.875H17.375C12.7151 46.875 9.42005 43.58 9.42005 43.58C6.125 40.2849 6.125 35.625 6.125 35.625C6.125 30.9651 9.42005 27.6701 9.42005 27.6701C12.7151 24.375 17.3757 24.375 17.3757 24.375C18.7974 24.3745 20.1776 24.7173 20.1776 24.7173Z" />
<path d="M54.9378 29.9034C54.9522 36.4062 50.5992 41.2372 50.5992 41.2372C50.2888 41.5816 50.1171 42.0287 50.1171 42.4923C50.1171 42.5248 50.1179 42.5573 50.1196 42.5898C50.1455 43.0864 50.3675 43.5524 50.737 43.8853C51.0814 44.1956 51.5285 44.3673 51.9921 44.3673C52.0246 44.3673 52.0571 44.3665 52.0895 44.3648C52.5861 44.339 53.0521 44.1169 53.385 43.7475C55.9532 40.8974 57.3247 37.3145 57.3247 37.3145C58.6963 33.7315 58.6878 29.8951 58.6878 29.8951C58.6792 26.0586 57.2918 22.4818 57.2918 22.4818C55.9043 18.9051 53.3235 16.0664 53.3235 16.0664C50.7427 13.2278 47.3138 11.507 47.3138 11.507C43.8849 9.78621 40.0666 9.41349 40.0666 9.41349C36.2482 9.04078 32.5513 10.066 32.5513 10.066C28.8543 11.0912 25.7733 13.3772 25.7733 13.3772C25.2966 13.7308 25.0155 14.2894 25.0155 14.883L25.0156 14.8979C25.0188 15.2951 25.148 15.6811 25.3847 16.0002C25.7384 16.4769 26.2969 16.758 26.8905 16.758L26.9054 16.7579C27.3027 16.7547 27.6887 16.6255 28.0078 16.3888C33.2301 12.514 39.7022 13.1458 39.7022 13.1458C46.1743 13.7775 50.5488 18.589 50.5488 18.589C54.9233 23.4006 54.9378 29.9034 54.9378 29.9034Z" />
<path d="M23.4622 21.4444C23.6347 21.1545 23.7266 20.8218 23.7266 20.4845L23.7266 20.4749C23.7258 20.3224 23.7064 20.1705 23.6689 20.0226C23.5464 19.5407 23.2375 19.1271 22.8101 18.8729C22.5201 18.7005 22.189 18.6095 21.8516 18.6095C21.8251 18.6095 21.7985 18.61 21.772 18.6112C21.1397 18.6381 20.5636 18.9821 20.2401 19.5261C17.3614 24.3671 17.3751 30.0001 17.3751 30.0001L17.3751 30.0053C17.3765 30.5026 17.5753 30.9789 17.9279 31.3296C18.2793 31.679 18.7546 31.8751 19.2501 31.8751L19.2542 31.8751C20.2877 31.8722 21.1251 31.0336 21.1251 30.0001L21.1251 29.9955C21.1123 25.3973 23.4622 21.4444 23.4622 21.4444Z" />
</svg>
