<svg width="20" height="20" viewBox="0 0 20 20" fill="none" xmlns="http://www.w3.org/2000/svg">
<path d="M2.07827 9.53873C1.94876 9.65713 1.875 9.82452 1.875 10C1.875 10.1755 1.94876 10.3429 2.07827 10.4613L5.7241 13.7946C5.97885 14.0275 6.37419 14.0098 6.6071 13.7551C6.84002 13.5003 6.82231 13.105 6.56756 12.8721L4.10984 10.625L13.3333 10.625C13.6785 10.625 13.9583 10.3452 13.9583 10C13.9583 9.65482 13.6785 9.375 13.3333 9.375L4.10984 9.375L6.56756 7.12793C6.82231 6.89502 6.84002 6.49969 6.6071 6.24493C6.37419 5.99018 5.97885 5.97248 5.7241 6.2054L2.07827 9.53873Z" fill="black"/>
<path d="M12.5 16.875C12.1548 16.875 11.875 17.1548 11.875 17.5C11.875 17.8452 12.1548 18.125 12.5 18.125L12.5457 18.125C13.6854 18.125 14.604 18.125 15.3265 18.0279C16.0765 17.927 16.7081 17.7113 17.2097 17.2097C17.7113 16.7081 17.927 16.0765 18.0279 15.3265C18.125 14.604 18.125 13.6854 18.125 12.5457L18.125 7.45427C18.125 6.31461 18.125 5.39601 18.0279 4.67354C17.927 3.92345 17.7113 3.29189 17.2097 2.79029C16.7081 2.28869 16.0765 2.07295 15.3265 1.9721C14.604 1.87497 13.6854 1.87498 12.5457 1.875L12.5 1.875C12.1548 1.875 11.875 2.15482 11.875 2.5C11.875 2.84518 12.1548 3.125 12.5 3.125C13.6962 3.125 14.5304 3.12632 15.1599 3.21095C15.7714 3.29316 16.0952 3.44354 16.3258 3.67417C16.5565 3.90481 16.7068 4.22862 16.789 4.8401C16.8737 5.46956 16.875 6.30382 16.875 7.5L16.875 12.5C16.875 13.6962 16.8737 14.5304 16.789 15.1599C16.7068 15.7714 16.5565 16.0952 16.3258 16.3258C16.0952 16.5565 15.7714 16.7068 15.1599 16.789C14.5304 16.8737 13.6962 16.875 12.5 16.875Z" fill="black"/>
</svg>
