<svg width="29" height="28" viewBox="0 0 29 28" fill="none" xmlns="http://www.w3.org/2000/svg">
<path fill-rule="evenodd" clip-rule="evenodd" d="M14.5002 0C6.61275 0 0.5 5.77754 0.5 13.5805C0.5 17.6622 2.17326 21.189 4.89724 23.6257C5.12541 23.8313 5.26344 24.1158 5.27471 24.4228L5.35077 26.913C5.37612 27.7074 6.19585 28.2229 6.92262 27.9046L9.70012 26.6792C9.93674 26.575 10.1987 26.5553 10.4466 26.6229C11.7227 26.975 13.0833 27.1609 14.5002 27.1609C22.3876 27.1609 28.5004 21.3834 28.5004 13.5805C28.5004 5.77754 22.3876 0 14.5002 0Z" fill="url(#paint0_linear_579_20250)"/>
<path fill-rule="evenodd" clip-rule="evenodd" d="M6.09442 17.5524L10.2071 11.0284C10.8607 9.99173 12.2635 9.73257 13.2438 10.4678L16.5143 12.9213C16.8157 13.1467 17.227 13.1439 17.5256 12.9185L21.9425 9.56637C22.5312 9.11848 23.3031 9.82553 22.9059 10.4509L18.796 16.9721C18.1425 18.0087 16.7396 18.2679 15.7593 17.5327L12.4889 15.0791C12.1875 14.8538 11.7762 14.8566 11.4776 15.0819L7.05781 18.4369C6.46907 18.8848 5.69723 18.1777 6.09442 17.5524Z" fill="white"/>
<defs>
<linearGradient id="paint0_linear_579_20250" x1="0.499824" y1="0" x2="0.499824" y2="28.0004" gradientUnits="userSpaceOnUse">
<stop stop-color="#00B2FF"/>
<stop offset="1" stop-color="#006AFF"/>
</linearGradient>
</defs>
</svg>
