<svg width="27" height="30" viewBox="0 0 27 30" fill="none" xmlns="http://www.w3.org/2000/svg">
<path d="M26.0275 13.0224C26.0275 6.10691 20.4105 0.5 13.495 0.5C6.57944 0.5 0.972534 6.10691 0.972534 13.0224C0.972534 19.5737 6.94366 24.886 13.495 24.886V29.5C21.1042 25.641 26.0275 19.431 26.0275 13.0224Z" fill="#0F9D58"/>
<path opacity="0.2" d="M19.7562 9.72705L16.1314 13.3518L12.5067 9.72705L7.23376 14.9999L18.5336 26.2998C22.3368 23.2955 24.912 19.5975 25.7383 15.7092L19.7562 9.72705Z" fill="url(#paint0_linear_2_36645)"/>
<path d="M14.4842 9.72705V14.9999H17.4501V17.9658C18.7432 17.9658 19.7571 16.3177 19.7571 14.6705V9.72705H14.4842Z" fill="#EEEEEE"/>
<path d="M7.23376 9.72705V14.9999H10.1996V17.9658C11.4927 17.9658 12.5067 16.3177 12.5067 14.6705V9.72705H7.23376Z" fill="#EEEEEE"/>
<path opacity="0.4" d="M7.23376 9.72705H12.5067V9.89177H7.23376V9.72705ZM14.4842 9.72705H19.7571V9.89177H14.4842V9.72705Z" fill="white"/>
<path opacity="0.2" d="M17.4501 17.9657V18.1305C18.7432 18.1305 19.7571 16.4823 19.7571 14.8351V14.6704C19.7562 16.3176 18.7432 17.9657 17.4501 17.9657ZM17.4501 14.9999H14.4842V15.1646H17.4501V14.9999ZM10.1996 17.9657L10.3561 18.1222C11.5741 17.9969 12.5067 16.4155 12.5067 14.8351V14.6704C12.5067 16.3176 11.4936 17.9657 10.1996 17.9657ZM10.1996 14.9999H7.23376V15.1646H10.1996V14.9999Z" fill="#263238"/>
<path opacity="0.2" d="M13.495 0.664721C20.4105 0.664721 26.0174 6.27163 26.0174 13.1872H26.0238C26.0238 13.1332 26.0275 13.0764 26.0275 13.0224H26.0174C26.0174 6.10691 20.4105 0.5 13.495 0.5C6.57944 0.5 0.972534 6.10691 0.972534 13.0224C0.972534 13.049 0.974364 13.0737 0.974364 13.1002C1.02195 6.22405 6.60781 0.664721 13.495 0.664721Z" fill="white"/>
<path opacity="0.2" d="M13.495 24.886V24.7213C6.96837 24.7213 1.02195 19.4521 0.974364 12.9355C0.974364 12.9648 0.972534 12.9932 0.972534 13.0225C0.972534 19.5738 6.94366 24.886 13.495 24.886ZM26.0174 13.0225C25.9332 19.3716 21.0383 25.5092 13.495 29.3344V29.4991C21.1042 25.641 26.0174 19.431 26.0174 13.0225Z" fill="#263238"/>
<defs>
<linearGradient id="paint0_linear_2_36645" x1="13.6493" y1="12.5179" x2="22.2319" y2="21.1004" gradientUnits="userSpaceOnUse">
<stop stop-color="#263238"/>
<stop offset="1" stop-opacity="0"/>
</linearGradient>
</defs>
</svg>
