<svg width="29" height="28" viewBox="0 0 29 28" fill="none" xmlns="http://www.w3.org/2000/svg">
<g clip-path="url(#clip0_579_20232)">
<path d="M6.40296 17.6867C6.40296 19.3128 5.08872 20.627 3.46262 20.627C1.83653 20.627 0.522285 19.3128 0.522285 17.6867C0.522285 16.0606 1.83653 14.7463 3.46262 14.7463H6.40296V17.6867ZM7.87312 17.6867C7.87312 16.0606 9.18736 14.7463 10.8135 14.7463C12.4396 14.7463 13.7538 16.0606 13.7538 17.6867V25.0375C13.7538 26.6636 12.4396 27.9778 10.8135 27.9778C9.18736 27.9778 7.87312 26.6636 7.87312 25.0375V17.6867Z" fill="#E01E5A"/>
<path d="M10.8134 5.88067C9.18736 5.88067 7.87311 4.56643 7.87311 2.94034C7.87311 1.31424 9.18736 0 10.8134 0C12.4395 0 13.7538 1.31424 13.7538 2.94034V5.88067H10.8134ZM10.8134 7.37311C12.4395 7.37311 13.7538 8.68736 13.7538 10.3134C13.7538 11.9395 12.4395 13.2538 10.8134 13.2538H3.44034C1.81424 13.2538 0.5 11.9395 0.5 10.3134C0.5 8.68736 1.81424 7.37311 3.44034 7.37311H10.8134Z" fill="#36C5F0"/>
<path d="M22.5971 10.3134C22.5971 8.68736 23.9113 7.37311 25.5374 7.37311C27.1635 7.37311 28.4777 8.68736 28.4777 10.3134C28.4777 11.9395 27.1635 13.2538 25.5374 13.2538H22.5971V10.3134ZM21.1269 10.3134C21.1269 11.9395 19.8127 13.2538 18.1866 13.2538C16.5605 13.2538 15.2462 11.9395 15.2462 10.3134V2.94034C15.2462 1.31424 16.5605 0 18.1866 0C19.8127 0 21.1269 1.31424 21.1269 2.94034V10.3134Z" fill="#2EB67D"/>
<path d="M18.1866 22.0972C19.8127 22.0972 21.1269 23.4114 21.1269 25.0375C21.1269 26.6636 19.8127 27.9778 18.1866 27.9778C16.5605 27.9778 15.2462 26.6636 15.2462 25.0375V22.0972H18.1866ZM18.1866 20.627C16.5605 20.627 15.2462 19.3128 15.2462 17.6867C15.2462 16.0606 16.5605 14.7463 18.1866 14.7463H25.5597C27.1858 14.7463 28.5 16.0606 28.5 17.6867C28.5 19.3128 27.1858 20.627 25.5597 20.627H18.1866Z" fill="#ECB22E"/>
</g>
<defs>
<clipPath id="clip0_579_20232">
<rect width="28" height="28" fill="white" transform="translate(0.5)"/>
</clipPath>
</defs>
</svg>
