<svg width="29" height="30" viewBox="0 0 29 30" fill="none" xmlns="http://www.w3.org/2000/svg">
<path d="M14.5 29.5C22.5081 29.5 29 23.0081 29 15C29 6.99187 22.5081 0.5 14.5 0.5C6.49187 0.5 0 6.99187 0 15C0 23.0081 6.49187 29.5 14.5 29.5Z" fill="url(#paint0_linear_2_36589)"/>
<path fill-rule="evenodd" clip-rule="evenodd" d="M6.56354 14.8469C10.7906 13.0053 13.6093 11.7912 15.0196 11.2045C19.0464 9.52966 19.8832 9.23871 20.4285 9.22911C20.5485 9.22699 20.8167 9.25672 20.9904 9.39769C21.1371 9.51672 21.1775 9.67751 21.1968 9.79037C21.2161 9.90322 21.2401 10.1603 21.221 10.3612C21.0028 12.654 20.0586 18.218 19.5782 20.7859C19.375 21.8725 18.9748 22.2369 18.5873 22.2725C17.7453 22.35 17.1058 21.7161 16.2903 21.1814C15.0141 20.3449 14.2931 19.8241 13.0544 19.0078C11.6228 18.0644 12.5508 17.5459 13.3667 16.6985C13.5802 16.4767 17.2903 13.1021 17.3621 12.796C17.371 12.7577 17.3794 12.615 17.2946 12.5397C17.2098 12.4643 17.0847 12.4901 16.9944 12.5106C16.8664 12.5396 14.8277 13.8871 10.8782 16.5531C10.2995 16.9505 9.77535 17.1441 9.30573 17.134C8.788 17.1228 7.79211 16.8412 7.05176 16.6006C6.1437 16.3054 5.42199 16.1493 5.48483 15.648C5.51757 15.3869 5.87714 15.1199 6.56354 14.8469Z" fill="white"/>
<defs>
<linearGradient id="paint0_linear_2_36589" x1="14.5" y1="0.5" x2="14.5" y2="29.2849" gradientUnits="userSpaceOnUse">
<stop stop-color="#2AABEE"/>
<stop offset="1" stop-color="#229ED9"/>
</linearGradient>
</defs>
</svg>
