<svg width="28" height="28" viewBox="0 0 28 28" fill="none" xmlns="http://www.w3.org/2000/svg">
<path d="M7.75607 23.56L8.17739 23.8098C9.94775 24.8603 11.9774 25.416 14.0472 25.4171H14.0517C20.408 25.4171 25.5814 20.2449 25.5841 13.8881C25.585 10.8074 24.3868 7.91067 22.2094 5.73163C20.0318 3.55266 17.1366 2.35191 14.056 2.35064C7.69467 2.35064 2.52143 7.52208 2.5189 13.8787C2.51804 16.057 3.1275 18.1784 4.28201 20.0141L4.5565 20.4502L3.39114 24.7044L7.75607 23.56ZM0.0597839 27.9999L2.02826 20.8123C0.814138 18.7088 0.175342 16.3225 0.176273 13.8778C0.179334 6.22992 6.40344 0.0078125 14.0517 0.0078125C17.7632 0.00940916 21.2468 1.45399 23.8667 4.07563C26.4861 6.69748 27.9282 10.1825 27.9269 13.889C27.9237 21.5365 21.6987 27.7597 14.0517 27.7597C14.0512 27.7597 14.052 27.7597 14.0517 27.7597H14.0457C11.7237 27.7588 9.44188 27.1764 7.41532 26.0712L0.0597839 27.9999Z" fill="white"/>
<path d="M0.645391 13.8668C0.645391 16.2448 1.26692 18.5418 2.45594 20.5685L0.5373 27.5134L7.64436 25.6488C9.59002 26.7298 11.8059 27.2702 14.0488 27.2702C21.4261 27.2702 27.4522 21.2711 27.4522 13.8938C27.4522 10.2998 26.047 6.9489 23.5339 4.40874C20.9937 1.8956 17.6429 0.490398 14.0488 0.490398C6.67153 0.490398 0.645391 6.48951 0.645391 13.8668Z" fill="url(#paint0_linear_579_20207)"/>
<path d="M0.166679 13.8562C0.166679 16.3195 0.810499 18.6988 2.04215 20.7982L0.0547123 27.9922L7.41663 26.0607C9.43206 27.1804 11.7274 27.7403 14.0507 27.7403C21.6926 27.7403 27.9348 21.526 27.9348 13.8842C27.9348 10.1612 26.4792 6.69022 23.876 4.05897C21.2447 1.4557 17.7737 0.000116348 14.0507 0.000116348C6.40891 0.000116348 0.166679 6.21436 0.166679 13.8562ZM4.56143 20.4343L4.28151 20.0144C3.13384 18.167 2.51801 16.0396 2.51801 13.8842C2.51801 7.50199 7.69655 2.35145 14.0507 2.35145C17.1299 2.35145 20.0411 3.55511 22.1964 5.7105C24.3798 7.89388 25.5835 10.8051 25.5835 13.8842C25.5835 20.2384 20.4049 25.4169 14.0507 25.4169C11.9793 25.4169 9.93591 24.8571 8.17241 23.7934L7.75253 23.5414L3.38577 24.6891L4.56143 20.4343Z" fill="url(#paint1_linear_579_20207)"/>
<path fill-rule="evenodd" clip-rule="evenodd" d="M10.5838 8.08443C10.3241 7.50711 10.0507 7.49553 9.80365 7.48542C9.60161 7.47677 9.37023 7.4773 9.13924 7.4773C8.90813 7.4773 8.53245 7.56412 8.21484 7.91106C7.89698 8.258 7.00125 9.09664 7.00125 10.8023C7.00125 12.5082 8.24372 14.1565 8.41689 14.388C8.59026 14.6192 10.8153 18.2313 14.3392 19.621C17.2679 20.7759 17.8638 20.5461 18.4995 20.4884C19.1352 20.4306 20.5507 19.6499 20.8396 18.8403C21.1285 18.0309 21.1285 17.3371 21.0419 17.192C20.9552 17.0475 20.7241 16.9609 20.3773 16.7875C20.0306 16.6141 18.3261 15.7753 18.0083 15.6597C17.6905 15.5442 17.4593 15.4863 17.2282 15.8334C16.997 16.1802 16.333 16.9609 16.1307 17.192C15.9284 17.4237 15.7262 17.4526 15.3794 17.2793C15.0327 17.1053 13.9161 16.7396 12.5915 15.5586C11.5608 14.6397 10.865 13.5049 10.6627 13.1578C10.4605 12.8111 10.6411 12.6233 10.815 12.4504C10.9707 12.2951 11.1617 12.0457 11.3351 11.8433C11.5081 11.6409 11.5659 11.4964 11.6815 11.2652C11.797 11.0337 11.7393 10.8312 11.6526 10.6578C11.5659 10.4845 10.8921 8.76993 10.5838 8.08443Z" fill="white"/>
<defs>
<linearGradient id="paint0_linear_579_20207" x1="13.9933" y1="27.5134" x2="13.9933" y2="0.490398" gradientUnits="userSpaceOnUse">
<stop stop-color="#20B038"/>
<stop offset="1" stop-color="#60D66A"/>
</linearGradient>
<linearGradient id="paint1_linear_579_20207" x1="13.9935" y1="27.9922" x2="13.9935" y2="0.000116348" gradientUnits="userSpaceOnUse">
<stop stop-color="#F9F9F9"/>
<stop offset="1" stop-color="white"/>
</linearGradient>
</defs>
</svg>
