<?xml version="1.0" standalone="no"?>
<!DOCTYPE svg PUBLIC "-//W3C//DTD SVG 20010904//EN"
 "http://www.w3.org/TR/2001/REC-SVG-20010904/DTD/svg10.dtd">
<svg version="1.0" xmlns="http://www.w3.org/2000/svg"
 width="256.000000pt" height="256.000000pt" viewBox="0 0 256.000000 256.000000"
 preserveAspectRatio="xMidYMid meet">

<g transform="translate(0.000000,256.000000) scale(0.100000,-0.100000)"
fill="#000000" stroke="none">
<path d="M1285 1919 c-248 -36 -485 -208 -603 -438 -49 -95 -67 -150 -88 -271
-37 -215 30 -420 182 -559 69 -63 123 -96 217 -129 66 -24 85 -26 222 -26 168
1 255 18 369 74 205 101 375 313 437 545 29 107 31 284 5 370 -49 164 -168
310 -307 379 -118 58 -275 78 -434 55z m250 -366 c55 -29 118 -99 140 -156 14
-36 16 -65 13 -134 -9 -155 -71 -266 -197 -350 -78 -53 -153 -76 -251 -76
-170 0 -286 102 -298 262 -9 128 33 245 120 338 104 110 186 144 333 140 78
-2 109 -8 140 -24z"/>
</g>
</svg>
