<svg width="243" height="48" viewBox="0 0 243 48" fill="none" xmlns="http://www.w3.org/2000/svg">
<path d="M54.9637 36.6667C52.6334 36.7111 50.5718 36.1444 48.7793 34.9667C46.9867 33.7667 45.6982 32.2 44.914 30.2667C44.1521 28.3111 43.9953 26.2667 44.4434 24.1334C45.0037 20.8 46.5834 18 49.1826 15.7334C51.7818 13.4667 54.9077 12.3334 58.5601 12.3334C62.1229 12.3334 64.8901 13.5778 66.862 16.0667C68.8563 18.5556 69.5734 21.4667 69.0132 24.8C68.4306 28.1778 66.862 31 64.3076 33.2667C61.7979 35.5334 58.6834 36.6667 54.9637 36.6667ZM63.0304 24.5C63.3665 22.6556 63.0415 21.1444 62.0557 19.9667C61.0921 18.7667 59.6917 18.1667 57.8543 18.1667C56.0393 18.1667 54.4259 18.7667 53.0143 19.9667C51.6251 21.1444 50.7623 22.6556 50.4262 24.5C50.0901 26.3667 50.3926 27.889 51.3337 29.0667C52.3196 30.2444 53.7089 30.8334 55.5015 30.8334C57.294 30.8334 58.9187 30.2444 60.3751 29.0667C61.854 27.8444 62.739 26.3223 63.0304 24.5Z" fill="black"/>
<path d="M73.9217 12.8334H82.7951C85.1478 12.8334 87.0188 13.6334 88.4081 15.2334C89.7973 16.8111 90.3127 18.8444 89.9542 21.3334C89.6181 23.7111 88.5762 25.6111 86.8284 27.0334C85.1254 28.4556 82.8959 29.1667 80.1398 29.1667H77.0476L75.804 36.1667H69.7876L73.9217 12.8334ZM83.9715 21C84.1282 20.2444 84.0051 19.6444 83.6017 19.2C83.1984 18.7556 82.5934 18.5334 81.7867 18.5334H78.9298L78.0559 23.5H80.9801C81.7643 23.5 82.4253 23.2778 82.9631 22.8334C83.5009 22.3667 83.837 21.7556 83.9715 21Z" fill="black"/>
<path d="M108.77 12.8334L107.761 18.4H98.8543L98.2493 21.6667H106.383L105.375 27.1334H97.3082L96.7032 30.5667H105.778L104.803 36.1667H89.6785L93.8126 12.8334H108.77Z" fill="black"/>
<path d="M128.269 21.2334C127.709 24.2778 126.006 26.4334 123.16 27.7L126.387 36.1667H120.337L117.581 28.6334H115.027L113.682 36.1667H107.666L111.833 12.8334H121.043C123.373 12.8334 125.267 13.6556 126.723 15.3C128.18 16.9667 128.695 18.9444 128.269 21.2334ZM120.068 18.3334H116.842L115.9 23.5667H119.362C120.102 23.589 120.729 23.3556 121.245 22.8667C121.782 22.3778 122.118 21.7444 122.253 20.9667C122.387 20.189 122.253 19.5556 121.85 19.0667C121.469 18.5778 120.875 18.3334 120.068 18.3334Z" fill="black"/>
<path d="M149.643 36.1667H143.224L142.854 32.8H135.022L133.409 36.1667H126.787L138.686 12.8334H146.013L149.643 36.1667ZM141.409 19.6L137.51 27.6667H142.282L141.409 19.6Z" fill="black"/>
<path d="M152.301 12.8334H169.947L168.905 18.6H163.124L159.998 36.1667H153.982L157.108 18.6H151.293L152.301 12.8334Z" fill="black"/>
<path d="M167.995 36.1667L172.129 12.8334H178.145L174.011 36.1667H167.995Z" fill="black"/>
<path d="M186.054 36.6667C183.589 36.6667 181.572 36.1556 180.004 35.1334C178.436 34.1111 177.405 32.689 176.911 30.8667L182.255 28.1334C182.883 30.0667 184.318 31.0334 186.558 31.0334C188.396 31.0334 189.415 30.5 189.616 29.4334C189.751 28.7 189.236 28.089 188.07 27.6C188.026 27.5778 187.208 27.289 185.617 26.7334C183.533 26.0223 181.976 25.089 180.945 23.9334C179.892 22.7334 179.545 21.1223 179.903 19.1C180.262 16.9667 181.281 15.3111 182.961 14.1334C184.642 12.9334 186.625 12.3334 188.91 12.3334C190.883 12.3334 192.574 12.8 193.986 13.7334C195.42 14.6444 196.473 15.9556 197.145 17.6667L192.003 20.4C191.263 18.7778 190.076 17.9667 188.44 17.9667C187.028 17.9667 186.222 18.4667 186.02 19.4667C185.885 20 186.076 20.4556 186.591 20.8334C187.108 21.189 188.127 21.6334 189.65 22.1667C190.771 22.5444 191.645 22.9 192.272 23.2334C192.899 23.5444 193.538 23.9778 194.187 24.5334C195.599 25.6667 196.103 27.4667 195.7 29.9334C195.297 32.1111 194.244 33.7778 192.54 34.9334C190.86 36.089 188.698 36.6667 186.054 36.6667Z" fill="black"/>
</svg>
